<svg width="33" height="33" viewBox="0 0 33 33" fill="none" xmlns="http://www.w3.org/2000/svg">
<path fill-rule="evenodd" clip-rule="evenodd" d="M12.4159 4.59759C15.1022 3.96747 17.8978 3.96747 20.5841 4.59759C24.4634 5.50755 27.4925 8.53657 28.4024 12.4159C29.0325 15.1022 29.0325 17.8978 28.4024 20.5841C27.4924 24.4634 24.4634 27.4924 20.5841 28.4024C17.8978 29.0325 15.1022 29.0325 12.4159 28.4024C8.53657 27.4924 5.50756 24.4634 4.59759 20.5841C3.96747 17.8978 3.96747 15.1022 4.59759 12.4159C5.50756 8.53657 8.53657 5.50755 12.4159 4.59759ZM20.6971 14.4063C20.9947 14.0874 20.9774 13.5877 20.6586 13.2901C20.3397 12.9925 19.84 13.0097 19.5423 13.3286L15.4932 17.667L13.4387 15.6125C13.1303 15.304 12.6302 15.304 12.3218 15.6125C12.0134 15.9209 12.0134 16.4209 12.3218 16.7293L14.9543 19.3619C15.1058 19.5133 15.3122 19.5968 15.5264 19.5931C15.7405 19.5894 15.944 19.4989 16.0901 19.3423L20.6971 14.4063Z" fill="#37CA8C"/>
</svg>
