<svg width="26" height="26" viewBox="0 0 26 26" fill="none" xmlns="http://www.w3.org/2000/svg">
<path d="M17.5612 17.4387C17.7705 17.6487 17.9129 17.916 17.9703 18.2068C18.0278 18.4977 17.9978 18.799 17.8841 19.0728C17.7704 19.3466 17.5781 19.5805 17.3316 19.7451C17.085 19.9097 16.7952 19.9976 16.4987 19.9976C16.2023 19.9976 15.9125 19.9097 15.6659 19.7451C15.4194 19.5805 15.2271 19.3466 15.1134 19.0728C14.9997 18.799 14.9697 18.4977 15.0272 18.2068C15.0846 17.916 15.227 17.6487 15.4362 17.4387C15.5756 17.2989 15.7412 17.188 15.9235 17.1122C16.1058 17.0365 16.3013 16.9976 16.4987 16.9976C16.6962 16.9976 16.8916 17.0365 17.074 17.1122C17.2563 17.188 17.4219 17.2989 17.5612 17.4387ZM7.43625 16.4387C7.22699 16.6487 7.08465 16.916 7.02719 17.2068C6.96973 17.4977 6.99974 17.799 7.11343 18.0728C7.22711 18.3466 7.41937 18.5805 7.66593 18.7451C7.9125 18.9097 8.2023 18.9976 8.49875 18.9976C8.7952 18.9976 9.085 18.9097 9.33156 18.7451C9.57812 18.5805 9.77038 18.3466 9.88407 18.0728C9.99775 17.799 10.0278 17.4977 9.97031 17.2068C9.91285 16.916 9.77051 16.6487 9.56125 16.4387C9.42194 16.2993 9.25651 16.1886 9.07441 16.1132C8.89231 16.0377 8.69712 15.9988 8.5 15.9988C8.30287 15.9988 8.10769 16.0377 7.92559 16.1132C7.74349 16.1886 7.57806 16.2993 7.43875 16.4387H7.43625ZM8.56125 11.5638C8.77051 11.3538 8.91285 11.0865 8.97031 10.7957C9.02776 10.5048 8.99775 10.2035 8.88407 9.9297C8.77038 9.65592 8.57812 9.42196 8.33156 9.25737C8.085 9.09278 7.7952 9.00493 7.49875 9.00493C7.2023 9.00493 6.9125 9.09278 6.66593 9.25737C6.41937 9.42196 6.22711 9.65592 6.11343 9.9297C5.99974 10.2035 5.96973 10.5048 6.02719 10.7957C6.08465 11.0865 6.22699 11.3538 6.43625 11.5638C6.57577 11.7034 6.74149 11.8142 6.9239 11.8897C7.10632 11.9652 7.30185 12.0039 7.49927 12.0037C7.69669 12.0035 7.89212 11.9642 8.07436 11.8883C8.2566 11.8124 8.42206 11.7013 8.56125 11.5612V11.5638ZM14.5612 11.4388C14.3513 11.2295 14.084 11.0871 13.7931 11.0297C13.5023 10.9722 13.201 11.0022 12.9272 11.1159C12.6534 11.2296 12.4195 11.4219 12.2549 11.6684C12.0903 11.915 12.0024 12.2048 12.0024 12.5013C12.0024 12.7977 12.0903 13.0875 12.2549 13.3341C12.4195 13.5806 12.6534 13.7729 12.9272 13.8866C13.201 14.0003 13.5023 14.0303 13.7931 13.9728C14.084 13.9154 14.3513 13.773 14.5612 13.5637C14.7011 13.4244 14.812 13.2588 14.8878 13.0765C14.9635 12.8941 15.0024 12.6987 15.0024 12.5013C15.0024 12.3038 14.9635 12.1083 14.8878 11.926C14.812 11.7437 14.7011 11.5781 14.5612 11.4388ZM26 13C26 15.5712 25.2376 18.0846 23.8091 20.2224C22.3806 22.3603 20.3503 24.0265 17.9749 25.0104C15.5994 25.9944 12.9856 26.2518 10.4638 25.7502C7.94207 25.2486 5.62569 24.0105 3.80761 22.1924C1.98953 20.3743 0.751397 18.0579 0.24979 15.5362C-0.251818 13.0144 0.00562507 10.4006 0.989564 8.02512C1.9735 5.64968 3.63975 3.61935 5.77759 2.1909C7.91542 0.762437 10.4288 0 13 0C13.2652 0 13.5196 0.105357 13.7071 0.292893C13.8946 0.48043 14 0.734784 14 1C14 2.32608 14.5268 3.59785 15.4645 4.53553C16.4021 5.47322 17.6739 6 19 6C19.2652 6 19.5196 6.10536 19.7071 6.29289C19.8946 6.48043 20 6.73478 20 7C20 8.32608 20.5268 9.59785 21.4645 10.5355C22.4021 11.4732 23.6739 12 25 12C25.2652 12 25.5196 12.1054 25.7071 12.2929C25.8946 12.4804 26 12.7348 26 13ZM23.9612 13.9237C22.4636 13.6964 21.0797 12.9905 20.0164 11.9115C18.9532 10.8325 18.2677 9.43837 18.0625 7.9375C16.5616 7.73227 15.1675 7.0468 14.0885 5.98357C13.0095 4.92033 12.3036 3.53644 12.0762 2.03875C9.98678 2.21486 7.99117 2.98453 6.32457 4.25705C4.65796 5.52958 3.3898 7.25196 2.66949 9.22123C1.94918 11.1905 1.80675 13.3246 2.25897 15.3722C2.71119 17.4197 3.73922 19.2953 5.22194 20.7781C6.70466 22.2608 8.58028 23.2888 10.6278 23.741C12.6754 24.1933 14.8095 24.0508 16.7788 23.3305C18.748 22.6102 20.4704 21.342 21.7429 19.6754C23.0155 18.0088 23.7851 16.0132 23.9612 13.9237Z" fill="#060047"/>
</svg>
