<svg width="21" height="20" viewBox="0 0 21 20" fill="none" xmlns="http://www.w3.org/2000/svg">
<path d="M2.66965 9.03652L16.87 6.88519C17.0829 6.85404 17.2861 6.77549 17.4646 6.65534C17.6431 6.53518 17.7924 6.37649 17.9014 6.19096C18.0104 6.00544 18.0763 5.79781 18.0944 5.58339C18.1124 5.36898 18.0821 5.15325 18.0056 4.95211C16.873 1.93239 12.9571 0.208484 8.69324 0.854447C4.42939 1.50041 1.19981 4.30684 1.01243 7.52655C0.998991 7.7413 1.03393 7.95633 1.11468 8.15578C1.19542 8.35523 1.31991 8.534 1.47896 8.67892C1.63801 8.82384 1.82757 8.93121 2.03365 8.9931C2.23973 9.05499 2.45707 9.06983 2.66965 9.03652ZM8.90856 2.27573C12.4458 1.73985 15.778 3.10783 16.6547 5.46391L2.45433 7.61524L2.44717 7.60996C2.59384 5.1052 5.37134 2.81161 8.90856 2.27573ZM19.4172 10.9046L15.9655 12.7906L12.4666 11.9658C12.2869 11.9238 12.098 11.9524 11.9389 12.0458L8.85151 13.8593L5.36016 13.0424C5.18828 13.0022 5.00762 13.0267 4.85262 13.1111L1.15941 15.1245C1.00524 15.2223 0.894025 15.375 0.848354 15.5518C0.802683 15.7285 0.825972 15.916 0.913495 16.0762C1.00102 16.2364 1.14622 16.3573 1.31962 16.4143C1.49302 16.4714 1.68164 16.4603 1.84718 16.3834L2.95794 15.7798L3.0294 16.2515C3.17216 17.1939 3.68344 18.041 4.45074 18.6064C5.21805 19.1718 6.17854 19.4092 7.1209 19.2664L15.6486 17.9745C16.591 17.8317 17.438 17.3205 18.0034 16.5532C18.5688 15.7859 18.8063 14.8254 18.6635 13.883L18.5334 13.024L20.1055 12.167C20.1947 12.1256 20.2744 12.0663 20.3397 11.9928C20.405 11.9193 20.4546 11.8332 20.4853 11.7399C20.5161 11.6465 20.5273 11.5478 20.5183 11.4498C20.5094 11.3519 20.4805 11.2569 20.4333 11.1706C20.3862 11.0843 20.3218 11.0086 20.2443 10.9482C20.1667 10.8878 20.0776 10.8439 19.9824 10.8193C19.8872 10.7947 19.788 10.7899 19.6909 10.8052C19.5937 10.8205 19.5008 10.8555 19.4177 10.9082L19.4172 10.9046ZM17.2422 14.0983C17.3279 14.6637 17.1854 15.24 16.8462 15.7004C16.5069 16.1608 15.9987 16.4676 15.4333 16.5532L6.90558 17.8452C6.34016 17.9308 5.76387 17.7884 5.30349 17.4491C4.8431 17.1099 4.53634 16.6016 4.45068 16.0362L4.30103 15.0484L5.29731 14.5049L8.79568 15.3262C8.97531 15.3682 9.16423 15.3396 9.32334 15.2462L12.4107 13.4327L15.8968 14.2504C16.0686 14.2906 16.2493 14.2661 16.4043 14.1816L17.1824 13.7575L17.2422 14.0983ZM0.14385 11.6C0.115296 11.4116 0.162783 11.2195 0.275864 11.066C0.388945 10.9125 0.558356 10.8103 0.74683 10.7817L19.2235 7.98255C19.412 7.954 19.6041 8.00149 19.7575 8.11457C19.911 8.22765 20.0132 8.39706 20.0418 8.58553C20.0704 8.77401 20.0229 8.9661 19.9098 9.11957C19.7967 9.27303 19.6273 9.37528 19.4388 9.40384L0.962151 12.203C0.773678 12.2316 0.58158 12.1841 0.428119 12.071C0.274658 11.9579 0.172403 11.7885 0.14385 11.6Z" fill="#060047"/>
</svg>
