<svg width="22" height="20" viewBox="0 0 22 20" fill="none" xmlns="http://www.w3.org/2000/svg">
<path d="M21.1093 8.90036C21.3743 7.98483 21.2649 7.00151 20.8049 6.16671C20.345 5.33192 19.5722 4.71403 18.6567 4.44897L5.53913 0.651259C4.7463 0.422246 3.89882 0.473071 3.13904 0.795193C2.37927 1.11732 1.75351 1.69111 1.36688 2.42018C0.980256 3.14924 0.856326 3.98916 1.01591 4.79882C1.1755 5.60848 1.60887 6.33855 2.24324 6.86638L0.160741 14.0595C0.0547188 14.4257 0.0985147 14.819 0.282495 15.1529C0.466475 15.4868 0.775569 15.734 1.14178 15.84L14.2593 19.6377C14.6256 19.7438 15.0189 19.7 15.3528 19.516C15.6867 19.332 15.9339 19.0229 16.0399 18.6567L18.1224 11.4636C18.8154 11.3725 19.4669 11.0816 19.9973 10.6264C20.5277 10.1713 20.9141 9.57149 21.1093 8.90036ZM3.54033 7.55524C3.72344 7.60825 3.9201 7.58635 4.08706 7.49436C4.25402 7.40237 4.3776 7.24783 4.43061 7.06472C4.48362 6.88162 4.46172 6.68495 4.36973 6.51799C4.27774 6.35103 4.1232 6.22746 3.94009 6.17444C3.39078 6.01541 2.92714 5.64468 2.65117 5.1438C2.3752 4.64292 2.3095 4.05293 2.46854 3.50361C2.62757 2.9543 2.9983 2.49066 3.49918 2.21469C4.00006 1.93872 4.59005 1.87302 5.13937 2.03205L13.4241 4.43061C13.9735 4.58964 14.4371 4.96038 14.7131 5.46126C14.989 5.96213 15.0547 6.55213 14.8957 7.10144C14.7367 7.65076 14.3659 8.1144 13.8651 8.39037C13.3642 8.66634 12.7742 8.73203 12.2249 8.573C12.0418 8.51999 11.8451 8.54189 11.6781 8.63388C11.5112 8.72587 11.3876 8.88041 11.3346 9.06352C11.2816 9.24662 11.3035 9.44329 11.3955 9.61025C11.4875 9.7772 11.642 9.90078 11.8251 9.95379L9.82632 16.8578L1.54154 14.4592L3.54033 7.55524ZM17.0577 9.97216C16.8746 9.91914 16.6779 9.94104 16.5109 10.033C16.344 10.125 16.2204 10.2796 16.1674 10.4627C16.1144 10.6458 16.1363 10.8424 16.2283 11.0094C16.3202 11.1764 16.4748 11.2999 16.6579 11.353L14.6591 18.2569L11.2071 17.2575L13.2896 10.0645C13.8271 9.99425 14.3418 9.80336 14.795 9.50609C15.2483 9.20881 15.6285 8.81285 15.9071 8.34784C16.1856 7.88283 16.3554 7.36083 16.4037 6.82092C16.4519 6.28101 16.3774 5.73717 16.1857 5.23013L18.2569 5.82977C18.8063 5.9888 19.2699 6.35953 19.5459 6.86041C19.8218 7.36129 19.8875 7.95128 19.7285 8.5006C19.5695 9.04991 19.1987 9.51355 18.6978 9.78953C18.197 10.0655 17.607 10.1312 17.0577 9.97216Z" fill="#060047"/>
</svg>
