<svg width="18" height="17" viewBox="0 0 18 17" fill="none" xmlns="http://www.w3.org/2000/svg">
<path d="M16.9313 4.79763C16.8579 4.72863 16.7689 4.67838 16.6719 4.65118C16.5749 4.62397 16.4728 4.62061 16.3742 4.64138C16.2529 4.20511 16.0465 3.79712 15.767 3.44085C15.4875 3.08457 15.1403 2.78703 14.7455 2.56532C14.3506 2.34362 13.9159 2.20211 13.4662 2.14893C13.0165 2.09575 12.5607 2.13195 12.125 2.25545C11.8508 1.65706 11.4106 1.14999 10.8566 0.794483C10.3026 0.438981 9.65825 0.25 9.00003 0.25C8.34181 0.25 7.69742 0.438981 7.14346 0.794483C6.5895 1.14999 6.14925 1.65706 5.87503 2.25545C5.43946 2.13179 4.98376 2.0954 4.53409 2.14837C4.08442 2.20134 3.64964 2.34262 3.25473 2.56411C2.85982 2.78559 2.51255 3.08291 2.23288 3.43899C1.95321 3.79507 1.74664 4.20289 1.62503 4.63904C1.52236 4.61797 1.41604 4.62306 1.31585 4.65384C1.21566 4.68462 1.12482 4.7401 1.05169 4.81518C0.978553 4.89025 0.925475 4.98252 0.897336 5.08348C0.869197 5.18444 0.8669 5.29086 0.890657 5.39295L3.27816 15.5367C3.34278 15.8109 3.49817 16.0553 3.71911 16.2302C3.94005 16.405 4.21359 16.5001 4.49534 16.5H13.5047C13.7865 16.5001 14.06 16.405 14.281 16.2302C14.5019 16.0553 14.6573 15.8109 14.7219 15.5367L17.1086 5.39295C17.1335 5.28687 17.1303 5.17612 17.0991 5.0717C17.068 4.96727 17.0102 4.87279 16.9313 4.79763ZM4.93753 3.37498C5.29473 3.37398 5.64662 3.46148 5.96175 3.62966C6.04683 3.67479 6.14118 3.69965 6.23745 3.70229C6.33371 3.70494 6.42929 3.6853 6.51672 3.64492C6.60414 3.60453 6.68105 3.54449 6.74145 3.46948C6.80184 3.39446 6.84408 3.30651 6.86488 3.21248C6.97306 2.72687 7.24354 2.29265 7.63171 1.98144C8.01987 1.67024 8.50252 1.50065 9.00003 1.50065C9.49754 1.50065 9.98019 1.67024 10.3684 1.98144C10.7565 2.29265 11.027 2.72687 11.1352 3.21248C11.156 3.30651 11.1982 3.39446 11.2586 3.46948C11.319 3.54449 11.3959 3.60453 11.4833 3.64492C11.5708 3.6853 11.6663 3.70494 11.7626 3.70229C11.8589 3.69965 11.9532 3.67479 12.0383 3.62966C12.3276 3.47621 12.6477 3.38966 12.9749 3.37641C13.3021 3.36317 13.6281 3.42356 13.9289 3.55313C14.2296 3.6827 14.4975 3.87815 14.7126 4.12505C14.9277 4.37195 15.0847 4.664 15.1719 4.97966L12.1594 5.83904L9.46488 4.76091C9.16696 4.6418 8.83466 4.6418 8.53675 4.76091L5.84144 5.8406L2.82816 4.97966C2.95571 4.51822 3.23112 4.11136 3.61215 3.82149C3.99318 3.53163 4.45878 3.37477 4.93753 3.37498ZM4.49534 15.25L2.35238 6.14373L5.30941 6.98826L6.41097 15.25H4.49534ZM10.3282 15.25H7.67191L6.55863 6.89998L9.00003 5.92341L11.4414 6.89998L10.3282 15.25ZM13.5047 15.25H11.5891L12.6907 6.98826L15.6477 6.14373L13.5047 15.25Z" fill="#060047"/>
</svg>
