<svg width="25" height="25" viewBox="0 0 25 25" fill="none" xmlns="http://www.w3.org/2000/svg">
<path fill-rule="evenodd" clip-rule="evenodd" d="M8.4159 0.597586C11.1022 -0.0325284 13.8978 -0.0325289 16.5841 0.597586C20.4634 1.50755 23.4925 4.53657 24.4024 8.4159C25.0325 11.1022 25.0325 13.8978 24.4024 16.5841C23.4924 20.4634 20.4634 23.4924 16.5841 24.4024C13.8978 25.0325 11.1022 25.0325 8.41591 24.4024C4.53657 23.4924 1.50756 20.4634 0.597587 16.5841C-0.0325291 13.8978 -0.0325291 11.1022 0.597587 8.4159C1.50756 4.53657 4.53657 1.50755 8.4159 0.597586ZM16.6971 10.4063C16.9947 10.0874 16.9774 9.58768 16.6586 9.29007C16.3397 8.99246 15.84 9.00969 15.5423 9.32856L11.4932 13.667L9.43867 11.6125C9.13025 11.304 8.6302 11.304 8.32178 11.6125C8.01336 11.9209 8.01336 12.4209 8.32178 12.7293L10.9543 15.3619C11.1058 15.5133 11.3122 15.5968 11.5264 15.5931C11.7405 15.5894 11.944 15.4989 12.0901 15.3423L16.6971 10.4063Z" fill="#37CA8C"/>
</svg>
