<svg width="25" height="25" viewBox="0 0 25 25" fill="none" xmlns="http://www.w3.org/2000/svg">
<path fill-rule="evenodd" clip-rule="evenodd" d="M8.4159 0.597586C11.1022 -0.0325284 13.8978 -0.0325289 16.5841 0.597586C20.4634 1.50755 23.4925 4.53657 24.4024 8.4159C25.0325 11.1022 25.0325 13.8978 24.4024 16.5841C23.4924 20.4634 20.4634 23.4925 16.5841 24.4024C13.8978 25.0325 11.1022 25.0325 8.41591 24.4024C4.53657 23.4924 1.50756 20.4634 0.597587 16.5841C-0.0325291 13.8978 -0.032529 11.1022 0.597587 8.4159C1.50756 4.53657 4.53657 1.50755 8.4159 0.597586ZM10.7316 9.61467C10.4231 9.30625 9.92309 9.30625 9.61467 9.61467C9.30625 9.92309 9.30625 10.4231 9.61467 10.7316L11.3831 12.5L9.61467 14.2684C9.30625 14.5768 9.30625 15.0769 9.61467 15.3853C9.92309 15.6937 10.4231 15.6937 10.7316 15.3853L12.5 13.6169L14.2684 15.3853C14.5768 15.6937 15.0769 15.6937 15.3853 15.3853C15.6937 15.0769 15.6937 14.5768 15.3853 14.2684L13.6169 12.5L15.3853 10.7316C15.6937 10.4231 15.6937 9.92309 15.3853 9.61467C15.0769 9.30625 14.5768 9.30625 14.2684 9.61467L12.5 11.3831L10.7316 9.61467Z" fill="#FF005C"/>
</svg>
