<svg width="24" height="25" viewBox="0 0 24 25" fill="none" xmlns="http://www.w3.org/2000/svg">
<path d="M15.8754 20.0404L16.0559 19.9155C16.6209 19.5248 16.9035 19.3295 17.1562 19.12C18.5294 17.9818 19.4518 16.3954 19.7588 14.6435C19.8153 14.3211 19.8446 13.98 19.9033 13.2979L19.9337 12.9452C20.0309 11.8161 20.0212 10.6805 19.9048 9.55321L19.8687 9.20437C19.665 7.23168 18.4539 5.50269 16.6644 4.62961C13.7221 3.1941 10.2779 3.1941 7.33559 4.62961C5.54608 5.50269 4.33504 7.23168 4.13127 9.20437L4.09524 9.55321C3.9788 10.6805 3.96911 11.8161 4.0663 12.9452L4.09666 13.2979C4.15537 13.9801 4.18473 14.3211 4.24123 14.6435C4.54821 16.3954 5.47055 17.9818 6.8438 19.12C7.09652 19.3294 7.3791 19.5249 7.94406 19.9155L8.12461 20.0404C8.89273 20.5715 9.27682 20.8371 9.66175 21.0217C11.1393 21.7301 12.8607 21.7301 14.3382 21.0217C14.7232 20.8371 15.1073 20.5715 15.8754 20.0404Z" fill="white" fill-opacity="0.15" stroke="white" stroke-width="1.5"/>
<path d="M9.25 12.303L11.25 14.303L14.75 10.553" stroke="white" stroke-width="1.5" stroke-linecap="round" stroke-linejoin="round"/>
</svg>
