<svg width="99" height="99" viewBox="0 0 99 99" fill="none" xmlns="http://www.w3.org/2000/svg">
<rect width="99" height="99" rx="22.7586" fill="#6475FF" fill-opacity="0.17"/>
<g clip-path="url(#clip0_1_1311)">
<path d="M63.1769 66.3184V69.6989H37.0045V66.3184C37.0045 65.4023 37.288 64.5081 37.8333 63.7666C38.3785 63.025 39.1201 62.4797 39.9925 62.1743C46.5574 60.0151 53.624 60.0151 60.2107 62.1743C61.0831 62.4579 61.8247 63.025 62.3699 63.7666C62.9152 64.5081 63.2205 65.4023 63.2205 66.3184H63.1769Z" stroke="#5957F8" stroke-width="3.86897" stroke-linejoin="round"/>
<path d="M56.6339 52.7954C54.6273 53.9514 52.3808 54.5621 50.0689 54.5621C47.757 54.5621 45.5106 53.9514 43.504 52.7954C41.8464 51.8358 40.4942 50.4617 39.5345 48.8041C38.5749 47.1465 38.0951 45.2708 38.0951 43.3733V30.4398H62.0864V43.3733C62.0864 45.2708 61.563 47.1465 60.6251 48.8041C59.6655 50.4617 58.3132 51.8358 56.6557 52.7954H56.6339Z" stroke="#5957F8" stroke-width="3.86897" stroke-linejoin="round"/>
<path d="M50.0689 54.583V60.5372" stroke="#5957F8" stroke-width="3.86897" stroke-miterlimit="10"/>
<path d="M38.095 34.802H30.4396V42.6101C30.4396 44.1151 30.963 45.5544 31.8791 46.7322C32.8387 47.8881 34.1255 48.717 35.6086 49.0224L40.516 50.0692" stroke="#5957F8" stroke-width="3.86897" stroke-linejoin="round"/>
<path d="M62.0646 34.802H69.6982V42.6101C69.6982 44.0932 69.1748 45.5545 68.2587 46.7105C67.3209 47.8664 66.0341 48.6952 64.551 49.0006L59.6437 50.0474" stroke="#5957F8" stroke-width="3.86897" stroke-linejoin="round"/>
</g>
<defs>
<clipPath id="clip0_1_1311">
<rect width="52.3448" height="52.3448" fill="white" transform="translate(23.8965 23.8966)"/>
</clipPath>
</defs>
</svg>
