<svg width="29" height="30" viewBox="0 0 29 30" fill="none" xmlns="http://www.w3.org/2000/svg">
<path d="M9.88459 14.7274C9.88459 12.0876 12.0233 9.94712 14.6624 9.94712C17.3014 9.94712 19.4413 12.0876 19.4413 14.7274C19.4413 17.3672 17.3014 19.5077 14.6624 19.5077C12.0233 19.5077 9.88459 17.3672 9.88459 14.7274ZM7.30121 14.7274C7.30121 18.7941 10.5968 22.0907 14.6624 22.0907C18.7279 22.0907 22.0235 18.7941 22.0235 14.7274C22.0235 10.6607 18.7279 7.36414 14.6624 7.36414C10.5968 7.36414 7.30121 10.6607 7.30121 14.7274ZM20.5946 7.07218C20.5945 7.41251 20.6953 7.74525 20.8842 8.0283C21.0731 8.31136 21.3417 8.53202 21.656 8.66238C21.9702 8.79275 22.3161 8.82697 22.6498 8.7607C22.9836 8.69444 23.2902 8.53068 23.5308 8.29012C23.7715 8.04956 23.9355 7.74302 24.002 7.40925C24.0685 7.07548 24.0346 6.72948 23.9045 6.415C23.7744 6.10051 23.554 5.83168 23.2712 5.64249C22.9884 5.45329 22.6558 5.35224 22.3156 5.3521H22.3149C21.8589 5.35232 21.4215 5.53358 21.099 5.8561C20.7764 6.17861 20.595 6.61599 20.5946 7.07218V7.07218ZM8.87078 26.3996C7.47312 26.3359 6.71345 26.103 6.20861 25.9063C5.53931 25.6457 5.06176 25.3352 4.55968 24.8337C4.05759 24.3321 3.74679 23.8549 3.48737 23.1854C3.29058 22.6807 3.05777 21.9205 2.99423 20.5225C2.92473 19.011 2.91086 18.5569 2.91086 14.7275C2.91086 10.8981 2.92588 10.4453 2.99423 8.93256C3.05788 7.53449 3.29241 6.77586 3.48737 6.26961C3.74794 5.60012 4.05827 5.12244 4.55968 4.6202C5.06108 4.11797 5.53816 3.80709 6.20861 3.54759C6.71322 3.35074 7.47312 3.11786 8.87078 3.05431C10.3819 2.98479 10.8358 2.97091 14.6624 2.97091C18.4889 2.97091 18.9433 2.98594 20.4556 3.05431C21.8533 3.11798 22.6117 3.35257 23.1178 3.54759C23.7871 3.80709 24.2647 4.11866 24.7668 4.6202C25.2688 5.12175 25.5785 5.60012 25.8391 6.26961C26.0359 6.77437 26.2687 7.53449 26.3322 8.93256C26.4017 10.4453 26.4156 10.8981 26.4156 14.7275C26.4156 18.5569 26.4017 19.0097 26.3322 20.5225C26.2685 21.9205 26.0346 22.6804 25.8391 23.1854C25.5785 23.8549 25.2682 24.3326 24.7668 24.8337C24.2654 25.3348 23.7871 25.6457 23.1178 25.9063C22.6132 26.1032 21.8533 26.336 20.4556 26.3996C18.9446 26.4691 18.4906 26.483 14.6624 26.483C10.8341 26.483 10.3814 26.4691 8.87078 26.3996V26.3996ZM8.75208 0.474537C7.22598 0.544056 6.18315 0.78611 5.27244 1.14059C4.32927 1.50665 3.53084 1.99776 2.73298 2.79459C1.93512 3.59142 1.44542 4.39134 1.07946 5.33478C0.725082 6.24633 0.483097 7.28888 0.413598 8.81543C0.342953 10.3444 0.326782 10.8332 0.326782 14.7274C0.326782 18.6216 0.342953 19.1104 0.413598 20.6394C0.483097 22.166 0.725082 23.2085 1.07946 24.12C1.44542 25.0629 1.93523 25.8637 2.73298 26.6602C3.53073 27.4567 4.32927 27.9471 5.27244 28.3142C6.18487 28.6687 7.22598 28.9108 8.75208 28.9803C10.2814 29.0498 10.7693 29.0671 14.6624 29.0671C18.5554 29.0671 19.0441 29.0509 20.5726 28.9803C22.0988 28.9108 23.141 28.6687 24.0523 28.3142C24.9949 27.9471 25.7939 27.4571 26.5917 26.6602C27.3896 25.8634 27.8783 25.0629 28.2453 24.12C28.5996 23.2085 28.8428 22.1659 28.9111 20.6394C28.9806 19.1093 28.9968 18.6216 28.9968 14.7274C28.9968 10.8332 28.9806 10.3444 28.9111 8.81543C28.8416 7.28877 28.5996 6.24575 28.2453 5.33478C27.8783 4.39192 27.3883 3.59268 26.5917 2.79459C25.7951 1.9965 24.9949 1.50665 24.0534 1.14059C23.141 0.78611 22.0987 0.542908 20.5738 0.474537C19.0453 0.405018 18.5566 0.387695 14.6635 0.387695C10.7704 0.387695 10.2814 0.403871 8.75208 0.474537Z" fill="white"/>
</svg>
