<svg width="28" height="24" viewBox="0 0 28 24" fill="none" xmlns="http://www.w3.org/2000/svg">
<path d="M2.60622 10.6587C2.60622 10.6587 14.2736 5.74463 18.32 4.01426C19.8712 3.32216 25.1316 1.10728 25.1316 1.10728C25.1316 1.10728 27.5596 0.138347 27.3572 2.49156C27.2897 3.46058 26.7502 6.85198 26.2107 10.5203C25.4014 15.7113 24.5246 21.3868 24.5246 21.3868C24.5246 21.3868 24.3898 22.9787 23.2433 23.2556C22.0968 23.5324 20.2084 22.2867 19.8712 22.0097C19.6014 21.8021 14.8131 18.6875 13.0596 17.1648C12.5875 16.7495 12.048 15.919 13.127 14.95C15.555 12.6659 18.4549 9.82822 20.2084 8.02868C21.0177 7.19808 21.827 5.26012 18.4549 7.61333C13.6666 11.0048 8.94572 14.1886 8.94572 14.1886C8.94572 14.1886 7.86662 14.8807 5.84341 14.2578C3.8201 13.635 1.45965 12.8044 1.45965 12.8044C1.45965 12.8044 -0.158853 11.7662 2.60622 10.6587Z" fill="white"/>
</svg>
