<svg width="24" height="24" viewBox="0 0 24 24" fill="none" xmlns="http://www.w3.org/2000/svg">
<path d="M12 21.75C6.07 21.75 1.25 16.93 1.25 11C1.25 5.07 6.07 0.25 12 0.25C17.93 0.25 22.75 5.07 22.75 11C22.75 16.93 17.93 21.75 12 21.75ZM12 1.75C6.9 1.75 2.75 5.9 2.75 11C2.75 16.1 6.9 20.25 12 20.25C17.1 20.25 21.25 16.1 21.25 11C21.25 5.9 17.1 1.75 12 1.75Z" fill="#737D7F"/>
<path d="M12 15.75C9.38 15.75 7.25 13.62 7.25 11C7.25 8.38 9.38 6.25 12 6.25C14.62 6.25 16.75 8.38 16.75 11C16.75 13.62 14.62 15.75 12 15.75ZM12 7.75C10.21 7.75 8.75 9.21 8.75 11C8.75 12.79 10.21 14.25 12 14.25C13.79 14.25 15.25 12.79 15.25 11C15.25 9.21 13.79 7.75 12 7.75Z" fill="#737D7F"/>
<path d="M21.17 7.74994C21.12 7.74994 21.06 7.73994 21.01 7.72994C18.07 7.08994 15.1 7.08994 12.16 7.72994C11.75 7.81994 11.36 7.55994 11.27 7.15994C11.18 6.74994 11.44 6.35994 11.84 6.26994C14.99 5.57994 18.18 5.57994 21.33 6.26994C21.73 6.35994 21.99 6.75994 21.9 7.15994C21.83 7.50994 21.52 7.74994 21.17 7.74994Z" fill="#737D7F"/>
<path d="M8.54001 13.7501C8.33001 13.7501 8.12001 13.6601 7.97001 13.4901C5.89001 11.1001 4.31001 8.37007 3.26001 5.37007L3.95001 5.06007L4.66001 4.82007L4.68001 4.88007C5.66001 7.69007 7.15001 10.2601 9.11001 12.5101C9.38001 12.8201 9.35001 13.3001 9.04001 13.5701C8.89001 13.6901 8.71001 13.7501 8.54001 13.7501Z" fill="#737D7F"/>
<path d="M10.88 21.69C10.7 21.69 10.52 21.63 10.38 21.5C10.07 21.22 10.05 20.75 10.33 20.44C12.33 18.24 13.81 15.69 14.73 12.86C14.86 12.47 15.3 12.21 15.69 12.34C16.08 12.47 16.31 12.85 16.19 13.24C15.18 16.36 13.59 19.1 11.45 21.46C11.29 21.61 11.08 21.69 10.88 21.69Z" fill="#737D7F"/>
</svg>
