<svg width="536" height="535" viewBox="0 0 536 535" fill="none" xmlns="http://www.w3.org/2000/svg">
<path d="M517.886 207.159C512.097 135.779 509.202 100.088 495.728 76.9975C457.148 10.8812 344.982 -4.84397 274.141 1.18623C179.301 9.25707 70.8046 63.7773 23.0465 169.042C-20.3305 264.652 -0.329173 372.877 65.0305 443.672C184.845 573.451 431.996 550.28 492.37 465.122C516.464 431.136 518.201 376.853 520.754 297.113C521.981 258.729 519.587 228.14 517.886 207.159Z" fill="#F4F7FA"/>
<path d="M472.439 43.6707C466.308 38.5977 457.006 35.8348 449.144 35.2769C393.41 31.3275 385.276 147.825 393.819 173.861C402.362 199.896 396.827 208.445 352.932 222.066C309.037 235.687 330.095 261.914 335.445 277.251C340.795 292.588 351.39 305.545 319.391 320.785C287.393 336.025 298.513 345.467 298.513 345.467C298.513 345.467 357.523 405.829 354.264 386.504C351.004 367.179 356.91 337.998 409.818 335.78C432.607 334.825 467.504 323.955 475.231 299.553C477.031 293.87 478.282 285.192 476.914 279.311C475.015 271.152 469.661 264.725 466.688 257.045C459.76 239.152 477.138 226.048 487.138 214.087C492.36 207.843 497.578 201.44 501.576 194.321C509.878 179.539 506.769 163.688 497.729 150.063C493.394 143.53 487.371 136.598 485.48 128.804C483.449 120.433 485.22 108.996 485.701 100.384C486.08 93.63 486.724 86.9024 486.343 80.1308C485.64 67.5392 482.69 52.1523 472.439 43.6707Z" fill="url(#paint0_linear_185_19)"/>
<g opacity="0.8">
<g opacity="0.8">
<path opacity="0.8" d="M293.873 379.346C293.491 379.484 293.057 379.321 292.864 378.953C292.654 378.549 292.808 378.051 293.212 377.841C293.46 377.711 318.303 364.643 346.016 343.121C371.553 323.29 404.82 292.021 418.289 255.67C429.539 225.311 439.797 175.12 446.437 117.971C452.391 66.7235 453.331 28.8226 450.801 21.7874C450.646 21.3594 450.87 20.8875 451.298 20.7327C451.726 20.5779 452.198 20.8015 452.353 21.2295C455.312 29.4608 453.434 72.0372 448.077 118.162C441.423 175.437 431.13 225.765 419.836 256.243C406.228 292.967 372.72 324.476 347.006 344.441C319.178 366.048 294.226 379.17 293.978 379.3C293.942 379.318 293.907 379.333 293.873 379.346Z" fill="white"/>
</g>
<g opacity="0.8">
<path opacity="0.8" d="M446.347 127.905C445.921 128.058 445.487 127.939 445.331 127.513C445.124 126.949 424.347 71.0516 397.555 58.4314C397.143 58.2384 396.976 57.7722 397.169 57.3595C397.364 56.9467 397.859 56.7843 398.27 56.9773C425.675 69.8861 446.02 124.611 446.875 126.94C447.031 127.368 446.779 127.75 446.351 127.903C446.349 127.905 446.347 127.905 446.347 127.905Z" fill="white"/>
</g>
<g opacity="0.8">
<path opacity="0.8" d="M436.214 192.729C435.897 192.843 435.526 192.753 435.299 192.476C435.01 192.125 435.06 191.605 435.411 191.317C435.564 191.191 450.861 178.643 469.735 168.113C495.238 153.886 514.782 149.913 527.825 156.309C528.234 156.509 528.402 157.002 528.201 157.411C528.001 157.82 527.508 157.988 527.099 157.788C497.089 143.075 437.06 192.09 436.458 192.587C436.384 192.65 436.3 192.698 436.214 192.729Z" fill="white"/>
</g>
<g opacity="0.8">
<path opacity="0.8" d="M369.616 325.231C369.532 325.262 369.444 325.277 369.35 325.279C368.896 325.287 368.521 324.924 368.513 324.467C368.51 324.228 368.085 300.245 363.066 274.974C358.463 251.805 348.959 222.783 329.821 216.096C329.392 215.945 329.164 215.475 329.315 215.047C329.464 214.617 329.936 214.389 330.364 214.54C346.322 220.116 357.869 240.348 364.686 274.676C369.732 300.09 370.157 324.202 370.16 324.442C370.168 324.805 369.939 325.115 369.616 325.231Z" fill="white"/>
</g>
<g opacity="0.8">
<path opacity="0.8" d="M403.671 286.484C403.336 286.604 402.951 286.497 402.729 286.197C402.458 285.83 402.536 285.314 402.901 285.045C405.555 283.083 468.157 237.059 492.57 241.454C493.019 241.534 493.316 241.964 493.235 242.411C493.155 242.86 492.727 243.158 492.278 243.076C468.557 238.806 404.525 285.893 403.881 286.369C403.816 286.421 403.743 286.457 403.671 286.484Z" fill="white"/>
</g>
</g>
<path d="M521.355 215.259C517.302 208.411 509.483 202.664 502.274 199.479C451.163 176.904 404.09 283.777 403.318 311.167C402.547 338.557 394.445 344.729 348.533 342.694C302.618 340.659 313.559 372.465 313.404 388.708C313.25 404.951 318.835 420.727 283.567 424.241C248.299 427.755 255.567 440.402 255.567 440.402C255.567 440.402 290.673 517.17 294.144 497.882C297.616 478.593 313.047 453.133 363.583 468.95C385.35 475.762 421.868 477.342 437.396 456.995C441.013 452.256 445.127 444.514 445.828 438.516C446.801 430.197 443.938 422.336 443.738 414.105C443.271 394.921 464.06 388.471 477.517 380.6C484.543 376.492 491.62 372.232 497.792 366.885C510.605 355.786 513.045 339.818 509.149 323.938C507.28 316.324 503.957 307.762 504.815 299.789C505.736 291.225 511.274 281.06 514.64 273.119C517.281 266.892 520.164 260.778 522.098 254.278C525.699 242.185 528.132 226.708 521.355 215.259Z" fill="url(#paint1_linear_185_19)"/>
<g opacity="0.8">
<g opacity="0.8">
<path opacity="0.8" d="M239.736 470.709C239.331 470.709 238.978 470.409 238.921 469.996C238.859 469.546 239.175 469.129 239.626 469.068C239.903 469.03 267.702 465.139 301.063 454.264C331.802 444.244 373.689 426.075 398.664 396.427C419.523 371.664 446.16 327.907 471.744 276.375C494.686 230.166 508.396 194.818 508.396 187.341C508.396 186.887 508.764 186.518 509.219 186.518C509.674 186.518 510.043 186.887 510.043 187.341C510.043 196.089 493.868 235.518 473.219 277.108C447.578 328.753 420.862 372.631 399.923 397.489C374.692 427.441 332.498 445.753 301.544 455.84C268.047 466.756 240.126 470.661 239.847 470.7C239.813 470.707 239.775 470.709 239.736 470.709Z" fill="white"/>
</g>
<g opacity="0.8">
<path opacity="0.8" d="M468.3 285.864C467.847 285.864 467.478 285.52 467.477 285.067C467.473 284.467 466.836 224.794 445.895 203.852C445.572 203.531 445.572 203.013 445.895 202.692C446.216 202.371 446.738 202.373 447.061 202.694C468.482 224.115 469.108 282.575 469.126 285.055C469.129 285.51 468.762 285.864 468.306 285.864C468.302 285.864 468.3 285.864 468.3 285.864Z" fill="white"/>
</g>
<g opacity="0.8">
<path opacity="0.8" d="M436.83 343.267C436.492 343.267 436.175 343.057 436.054 342.72C435.902 342.292 436.123 341.82 436.553 341.666C436.739 341.599 455.379 334.967 476.705 331.445C505.516 326.686 525.252 329.563 535.364 339.994C535.681 340.32 535.671 340.842 535.345 341.159C535.018 341.476 534.496 341.467 534.179 341.14C510.918 317.142 437.845 342.953 437.109 343.217C437.016 343.251 436.922 343.267 436.83 343.267Z" fill="white"/>
</g>
<g opacity="0.8">
<path opacity="0.8" d="M329.324 445.418C329.237 445.418 329.147 445.402 329.057 445.374C328.627 445.227 328.396 444.758 328.545 444.327C328.621 444.099 336.339 421.389 340.166 395.909C343.674 372.549 344.551 342.023 328.805 329.254C328.451 328.967 328.398 328.448 328.684 328.094C328.971 327.741 329.491 327.685 329.844 327.974C342.975 338.62 346.995 361.568 341.792 396.175C337.942 421.797 330.182 444.63 330.104 444.86C329.987 445.202 329.666 445.418 329.324 445.418Z" fill="white"/>
</g>
<g opacity="0.8">
<path opacity="0.8" d="M374.48 420.479C374.124 420.479 373.798 420.248 373.691 419.892C373.559 419.457 373.807 418.996 374.243 418.866C377.403 417.919 451.886 395.793 473.372 408.189C473.766 408.417 473.902 408.921 473.674 409.315C473.447 409.708 472.942 409.844 472.549 409.617C451.671 397.571 375.483 420.215 374.717 420.445C374.638 420.468 374.558 420.479 374.48 420.479Z" fill="white"/>
</g>
</g>
<path d="M350.024 22.7295L349.435 26.9445C347.481 27.0343 345.558 27.2865 343.688 27.7069L342.094 23.7746C341.661 22.7027 340.432 22.1926 339.352 22.6378L332.594 25.4217C331.513 25.8669 330.985 27.1012 331.417 28.175L333.018 32.1569C331.381 33.2002 329.833 34.381 328.393 35.6879L324.999 33.055C324.082 32.3442 322.752 32.52 322.028 33.4486L317.488 39.2571C316.76 40.1876 316.915 41.5213 317.832 42.234L321.239 44.8823C320.331 46.5866 319.569 48.3865 318.954 50.2647L314.63 49.6972C313.468 49.5444 312.387 50.3679 312.215 51.5373L311.127 58.8629C310.954 60.0361 311.756 61.1137 312.92 61.2666L317.257 61.836C317.309 63.8136 317.525 65.7587 317.909 67.6522L313.839 69.3489C312.742 69.8056 312.203 71.0685 312.635 72.1672L315.346 79.0572C315.78 80.1616 317.024 80.6832 318.124 80.2227L322.196 78.5184C323.22 80.1845 324.388 81.7551 325.683 83.2149L322.97 86.7383C322.236 87.6917 322.393 89.056 323.322 89.7859L329.138 94.3486C330.068 95.0785 331.419 94.8951 332.151 93.9378L334.832 90.4374C336.544 91.3488 338.355 92.1074 340.245 92.7131L339.635 97.0809C339.469 98.2771 340.285 99.3719 341.458 99.5247L348.801 100.488C349.976 100.643 351.059 99.7961 351.224 98.6L351.816 94.2645C353.813 94.1786 355.775 93.9206 357.684 93.4907L359.295 97.4956C359.742 98.6076 360.993 99.133 362.09 98.6687L368.938 95.7664C370.033 95.3021 370.554 94.0276 370.105 92.9194L368.495 88.9432C370.167 87.8637 371.741 86.6389 373.201 85.2842L376.548 87.8866C377.485 88.6146 378.826 88.4312 379.544 87.4777L384.029 81.5316C384.745 80.582 384.568 79.2273 383.633 78.5031L380.316 75.9313C381.22 74.1792 381.971 72.3277 382.567 70.3998L386.713 70.9443C387.877 71.0972 388.943 70.266 389.094 69.089L390.036 61.7443C390.187 60.573 389.367 59.4992 388.206 59.3463L384.071 58.8037C383.985 56.8013 383.733 54.8371 383.308 52.9283L387.143 51.3233C388.221 50.8723 388.731 49.6265 388.284 48.5413L385.483 41.7697C385.036 40.6882 383.801 40.1762 382.724 40.6252L378.866 42.234C377.815 40.5851 376.627 39.0297 375.306 37.591L377.855 34.2644C378.564 33.3377 378.39 32.0136 377.469 31.3048L371.708 26.8776C370.787 26.1707 369.467 26.3445 368.756 27.2674L366.192 30.5978C364.492 29.715 362.696 28.9813 360.821 28.4005L361.392 24.2179C361.549 23.0677 360.745 22.011 359.593 21.8601L352.395 20.9162C351.249 20.7691 350.184 21.5773 350.024 22.7295ZM324.648 56.872C326.728 42.3964 340.014 32.2486 354.334 34.1269C368.655 36.0051 378.713 49.2157 376.789 63.7104C374.853 78.2948 361.54 88.6413 347.062 86.744C332.585 84.8448 322.555 71.4354 324.648 56.872Z" fill="#D8DEE8"/>
<path d="M239.657 20.444L238.748 26.9614C235.727 27.099 232.754 27.4888 229.861 28.1384L227.398 22.0585C226.726 20.4 224.828 19.6128 223.16 20.3007L212.711 24.6055C211.039 25.2953 210.223 27.2003 210.892 28.8645L213.368 35.0208C210.836 36.6334 208.442 38.4582 206.216 40.4816L200.962 36.4099C199.546 35.3112 197.488 35.5845 196.368 37.0175L189.348 45.9978C188.223 47.4366 188.462 49.4983 189.88 50.6007L195.147 54.6973C193.745 57.3322 192.564 60.1161 191.613 63.0184L184.927 62.1414C183.133 61.9064 181.461 63.1789 181.192 64.9865L179.512 76.3151C179.243 78.1302 180.485 79.7945 182.284 80.0295L188.989 80.9084C189.069 83.9655 189.402 86.9749 189.998 89.9021L183.706 92.5255C182.009 93.2325 181.176 95.1833 181.845 96.8839L186.037 107.536C186.708 109.242 188.632 110.051 190.332 109.338L196.628 106.703C198.21 109.279 200.016 111.707 202.02 113.964L197.826 119.411C196.691 120.886 196.934 122.996 198.371 124.123L207.364 131.177C208.803 132.307 210.892 132.022 212.025 130.543L216.169 125.132C218.815 126.542 221.618 127.715 224.54 128.651L223.596 135.406C223.338 137.255 224.599 138.948 226.416 139.185L237.77 140.674C239.585 140.912 241.262 139.604 241.515 137.754L242.432 131.051C245.519 130.919 248.554 130.52 251.504 129.855L253.993 136.048C254.685 137.767 256.621 138.579 258.315 137.861L268.905 133.375C270.596 132.658 271.404 130.686 270.708 128.97L268.217 122.822C270.802 121.154 273.236 119.258 275.495 117.164L280.669 121.188C282.115 122.313 284.188 122.029 285.3 120.558L292.234 111.365C293.341 109.898 293.067 107.802 291.623 106.682L286.495 102.708C287.893 99.9964 289.053 97.1342 289.974 94.1554L296.386 94.9961C298.186 95.233 299.835 93.9471 300.068 92.1281L301.524 80.7708C301.757 78.9576 300.489 77.2991 298.694 77.0641L292.301 76.2253C292.169 73.1299 291.78 70.0919 291.122 67.1417L297.053 64.6597C298.721 63.9623 299.51 62.0363 298.815 60.3587L294.483 49.888C293.792 48.2162 291.883 47.4251 290.219 48.1187L284.255 50.6045C282.631 48.0537 280.791 45.6501 278.752 43.4279L282.692 38.2843C283.789 36.8532 283.521 34.8049 282.094 33.7081L273.186 26.864C271.763 25.771 269.72 26.0405 268.622 27.4678L264.655 32.6171C262.024 31.2529 259.248 30.1179 256.351 29.218L257.236 22.7502C257.479 20.9713 256.233 19.3396 254.454 19.1065L243.324 17.6467C241.549 17.4136 239.906 18.6651 239.657 20.444ZM200.421 73.235C203.637 50.8529 224.179 35.1622 246.32 38.0665C268.461 40.9707 284.013 61.3962 281.039 83.8089C278.047 106.357 257.463 122.357 235.079 119.421C212.693 116.486 197.184 95.7508 200.421 73.235Z" fill="#D8DEE8"/>
<path d="M229.009 83.5546L180.331 488.155C179.601 494.222 183.782 499.659 189.64 500.24L392.39 522.5C404.809 523.272 411.609 516.927 412.378 510.476L463.483 80.3179C464.246 73.9036 458.152 68.0931 445.679 68.0931L241.086 72.4018C235.161 72.5031 229.735 77.5206 229.009 83.5546Z" fill="url(#paint2_linear_185_19)"/>
<path d="M219.883 82.8595L170.938 489.483C170.205 495.581 174.401 501.047 180.278 501.632L390.471 522.56C397.061 523.215 403.101 518.448 403.871 511.965L455.263 79.5845C456.03 73.1359 451.19 67.954 444.527 68.0667L232.003 71.6532C226.06 71.7506 220.613 76.7949 219.883 82.8595Z" fill="url(#paint3_linear_185_19)"/>
<path d="M223.872 105.287L178.506 482.308C177.821 488.004 181.751 493.102 187.252 493.637L384.932 512.853C391.058 513.449 396.671 508.999 397.39 502.963L444.884 103.544C445.599 97.541 441.105 92.6821 434.916 92.749L235.207 94.8756C229.649 94.9329 224.555 99.6199 223.872 105.287Z" fill="white"/>
<path d="M329.879 82.5783C329.619 84.7432 331.172 86.4762 333.351 86.4475C335.531 86.4208 337.51 84.64 337.77 82.4713C338.03 80.3027 336.471 78.5697 334.291 78.6021C332.111 78.6346 330.137 80.4154 329.879 82.5783Z" fill="url(#paint4_linear_185_19)"/>
<path d="M20.3242 125.769C20.3242 86.0105 55.0055 53.7863 96.6246 53.7902C137.013 53.794 168.888 84.3233 168.888 121.978C168.888 159.632 137.013 191.787 96.6246 193.853C55.0036 195.981 20.3242 165.527 20.3242 125.769Z" fill="#1FCD6F"/>
<path d="M24.8106 122.598C24.8106 82.8403 58.4887 50.6162 98.9022 50.62C138.121 50.6238 169.075 81.1532 169.075 118.808C169.075 156.462 138.121 188.617 98.9022 190.683C58.4868 192.811 24.8106 162.355 24.8106 122.598Z" fill="url(#paint5_linear_185_19)"/>
<g opacity="0.5">
<path opacity="0.5" d="M36.34 122.294C36.34 88.8914 64.6338 61.8167 98.589 61.8224C131.539 61.8262 157.546 87.4756 157.546 119.111C157.546 150.747 131.541 177.762 98.589 179.497C64.6338 181.286 36.34 155.697 36.34 122.294Z" fill="white"/>
</g>
<path opacity="0.5" d="M96.2522 66.9546C129.202 66.9584 155.209 92.6077 155.209 124.243C155.209 131.766 153.724 139.021 151.04 145.743C155.198 137.649 157.548 128.59 157.548 119.111C157.548 87.4756 131.543 61.8262 98.5909 61.8224C72.4027 61.8205 49.5965 77.9316 40.5264 100.623C50.7964 80.6735 72.0856 66.9526 96.2522 66.9546Z" fill="white"/>
<path d="M70.4356 114.119V143.272C70.4356 151.701 77.5263 158.35 86.2468 158.123L107.87 157.559C116.486 157.333 123.448 150.392 123.448 142.052V113.206L70.4356 114.119ZM90.3491 144.258L94.3673 132.081C92.6457 131.193 91.4802 129.443 91.4802 127.404C91.4802 124.412 93.9909 121.938 97.0824 121.88C100.17 121.821 102.671 124.194 102.671 127.181C102.671 129.215 101.51 131.01 99.7937 131.969L103.797 143.945L90.3491 144.258Z" fill="white"/>
<path d="M117.301 110.678C115.007 110.716 113.146 108.941 113.146 106.711C113.146 98.1415 105.952 91.2629 97.0804 91.3776C88.1785 91.4922 80.912 98.602 80.912 107.225C80.912 109.468 79.0262 111.318 76.697 111.358C74.3659 111.396 72.4743 109.608 72.4743 107.361C72.4743 94.236 83.5431 83.4328 97.0824 83.2819C110.549 83.1309 121.45 93.5825 121.45 106.581C121.45 108.805 119.594 110.639 117.301 110.678Z" fill="white"/>
<path d="M167.385 276.961C167.385 276.961 165.914 271.446 166.957 270.036C167.998 268.626 174.37 262.99 173.759 264.828C173.146 266.666 172.227 267.891 172.227 267.891C172.227 267.891 175.658 269.484 173.451 271.872C171.246 274.263 170.509 274.813 170.386 276.959C170.266 279.105 168.856 279.84 167.385 276.961Z" fill="url(#paint6_linear_185_19)"/>
<path d="M106.175 514.991C106.175 514.991 105.396 519.76 105.495 521.457C105.594 523.154 124.43 524.021 124.619 522.75C124.808 521.48 121.507 519.456 119.181 518.744C116.856 518.029 110.05 516.126 110.05 516.126L106.175 514.991Z" fill="url(#paint7_linear_185_19)"/>
<path d="M110.747 510.237L110.147 516.168C110.147 516.168 107.959 517.615 106.031 516.499L105.066 510.044L110.747 510.237Z" fill="url(#paint8_linear_185_19)"/>
<path d="M72.5679 522.722C72.5679 522.722 71.7884 527.491 71.8877 529.188C71.9871 530.885 90.8229 531.752 91.012 530.482C91.2031 529.211 87.8995 527.187 85.5741 526.475C83.2488 525.762 76.4429 523.857 76.4429 523.857L72.5679 522.722Z" fill="url(#paint9_linear_185_19)"/>
<path d="M77.141 517.968L76.541 523.899C76.541 523.899 74.3532 525.345 72.4253 524.229L71.4604 517.775L77.141 517.968Z" fill="url(#paint10_linear_185_19)"/>
<path d="M107.33 355.42C109.506 359.834 111.684 364.248 113.86 368.661C115.611 393.85 116.482 421.242 115.922 450.535C115.505 472.329 114.342 492.974 112.668 512.352C109.716 512.217 106.764 512.081 103.812 511.946C99.5434 503.473 94.5049 490.639 94.0406 474.796C93.5572 458.27 98.567 456.074 98.2499 440.252C97.8371 419.742 89.237 414.27 84.6552 389.601C82.903 380.166 81.7241 367.844 83.1247 352.894C91.1936 353.737 99.2606 354.579 107.33 355.42Z" fill="url(#paint11_linear_185_19)"/>
<path opacity="0.3" d="M83.1263 352.894C87.4827 353.349 91.8392 353.804 96.1975 354.258C104.041 367.907 106.231 382.111 104.853 388.395C102.906 397.286 97.7547 400.133 98.0394 409.058C98.3203 417.889 103.523 420.18 106.823 430.587C109.108 437.795 108.504 444.421 107.205 457.379C104.587 483.482 98.284 491.465 103.563 500.023C105.063 502.455 107.767 505.35 113.063 507.56C112.933 509.162 112.805 510.767 112.67 512.351C109.718 512.217 106.766 512.079 103.814 511.946C99.5451 503.473 94.5065 490.639 94.0422 474.796C93.5588 458.27 98.5687 456.074 98.2515 440.252C97.8388 419.742 89.2387 414.272 84.6568 389.603C82.9047 380.168 81.7239 367.845 83.1263 352.894Z" fill="url(#paint12_linear_185_19)"/>
<path d="M95.6144 363.367C91.5274 385.653 87.9181 409.505 85.1017 434.801C81.7007 465.343 79.8855 494.138 79.1728 520.87C75.9322 520.962 72.6936 521.054 69.453 521.145C56.6856 495.888 55.9061 478.764 57.7461 467.615C58.455 463.32 60.3829 454.895 60.8223 442.304C61.128 433.528 60.5682 426.848 59.8689 418.819C58.3365 401.216 56.4755 397.374 56.208 383.909C55.9557 371.271 55.9042 364.878 59.5116 361.146C69.0154 351.312 93.74 362.495 95.6144 363.367Z" fill="url(#paint13_linear_185_19)"/>
<path d="M165.691 276.111C167.846 275.96 169.999 275.811 172.154 275.66C177.237 296.202 173.591 316.127 162.119 323.454C144.195 334.903 110.882 313.333 103.663 289.845C100.495 279.535 101.216 264.658 107.55 261.767C109.307 260.964 112.036 260.84 117.946 264.157C135.595 274.066 136.059 292.795 145.032 294.381C149.018 295.088 155.461 292.545 165.691 276.111Z" fill="url(#paint14_linear_185_19)"/>
<path d="M116.34 373.18C119.445 368.029 115.546 363.061 114.659 353.303C113.654 342.242 117.915 340.4 122.128 322.071C124.931 309.88 127.619 298.177 124.409 284.477C122.871 277.912 120.261 266.777 111.044 261.398C106.288 258.622 99.7937 258.901 87.0015 259.569C71.1808 260.397 63.2724 260.809 57.3721 263.916C56.5085 264.371 38.5631 274.133 37.3268 290.045C36.0696 306.24 53.7054 308.417 56.0575 330.013C57.1141 339.708 55.2321 354.62 54.0112 364.29C52.8399 373.576 52.0317 375.953 53.8659 378.765C58.2835 385.543 71.8056 383.611 98.8498 379.749C109.458 378.232 114.023 377.025 116.34 373.18Z" fill="url(#paint15_linear_185_19)"/>
<path d="M75.1905 326.538C74.0459 330.747 69.9341 333.89 67.0719 344.13C66.4547 346.341 62.0505 362.083 67.7616 365.958C71.0595 368.195 74.0211 363.955 82.027 363.401C95.8987 362.442 102.508 374.101 111.57 370.916C113.143 370.362 115.218 369.185 117.291 366.479C117.704 368.918 117.633 371.037 116.341 373.182C114.026 377.027 109.459 378.234 98.8508 379.749C71.8066 383.611 58.2845 385.543 53.8669 378.765C52.0346 375.955 52.8409 373.576 54.0121 364.29C55.2331 354.618 57.1151 339.707 56.0585 330.014C53.7064 308.417 36.0687 306.241 37.3278 290.045C37.6641 285.716 39.2557 281.862 41.3862 278.505C63.7587 287.558 78.7845 313.31 75.1905 326.538Z" fill="url(#paint16_linear_185_19)"/>
<path d="M46.9342 358.393L51.411 361.251C52.2154 360.323 54.0764 358.45 56.9807 357.812C60.2537 357.092 64.0121 358.126 64.0981 359.169C64.1688 360.006 61.8797 360.85 61.5263 360.98C58.6698 362.035 56.5508 361.158 55.3967 362.306C54.9878 362.711 54.4796 363.468 53.3083 364.167C53.0007 364.351 52.6797 364.513 52.5096 364.58C50.6027 365.321 47.3335 362.002 47.0526 361.712L46.9342 358.393Z" fill="url(#paint17_linear_185_19)"/>
<path d="M60.1579 299.684C63.3966 291.929 65.6397 280.054 60.5248 262.42C26.8237 275.699 9.63683 307.18 16.3472 332.134C21.8787 352.707 42.0062 362.726 46.4963 364.836C47.5415 362.457 48.5867 360.08 49.6299 357.703C44.427 351.91 38.5631 343.342 39.3923 333.565C40.5426 320.011 53.6023 315.385 60.1579 299.684Z" fill="url(#paint18_linear_185_19)"/>
<path d="M86.1717 243.615C86.1717 243.615 85.9061 249.509 84.0756 253.925C82.421 257.914 73.7234 260.423 71.9598 261.314C70.1962 262.204 75.2635 264.808 80.3517 265.318C85.4399 265.83 99.9689 264.674 102.589 262.747C105.208 260.819 100.483 260.964 96.8526 259.63C93.2203 258.297 91.1204 251.194 91.7624 247.971C92.4044 244.746 86.1717 243.615 86.1717 243.615Z" fill="url(#paint19_linear_185_19)"/>
<path d="M94.2196 241.477C96.8602 238.882 97.2289 238.58 97.5155 237.684C98.6696 234.086 95.8781 229.157 92.2171 227.943C92.0261 227.88 89.5708 227.095 88.6346 228.159C87.8378 229.063 89.009 230.313 88.453 232.057C87.9314 233.689 86.5175 233.811 83.8941 235.951C81.7331 237.713 80.3917 238.809 80.0822 240.351C79.444 243.529 83.2903 248.134 86.6952 248.01C87.9199 247.964 88.2543 247.339 94.2196 241.477Z" fill="url(#paint20_linear_185_19)"/>
<path d="M87.0301 248.501C87.0301 248.501 89.8369 251.678 94.1112 250.627C97.9383 249.687 96.962 240.902 94.1609 239.499C93.2265 239.031 91.5279 239.069 90.2516 239.685C89.4968 240.048 89.2866 240.426 88.0428 240.995C86.8963 241.521 86.5314 241.448 86.2238 241.819C85.8378 242.281 85.6716 243.279 86.8811 245.682C86.0098 245.065 85.0716 244.935 84.4965 245.344C84.4048 245.409 84.1717 245.638 84.0704 245.938C83.7055 247.025 84.8366 248.132 87.0301 248.501Z" fill="url(#paint21_linear_185_19)"/>
<path d="M407.124 129.549L408.111 134.882L387.776 134.93L211.302 135.348C206.763 135.36 202.588 139.112 201.965 143.73L159.837 425.279C159.211 429.94 166.464 437.053 170.977 437.401L249.268 443.418V443.322L366.38 452.306C366.381 452.306 366.383 452.306 366.385 452.306L366.668 452.425C371.668 452.811 376.256 449.182 376.906 444.26C376.906 444.258 376.906 444.281 376.908 444.279L416.36 143.677C417.002 138.801 412.152 129.536 407.124 129.549Z" fill="url(#paint22_linear_185_19)"/>
<path d="M372.916 438.403C372.27 443.327 367.684 447.007 362.684 446.623L166.79 431.582C162.279 431.236 159.14 427.177 159.767 422.517L198.063 137.974C198.684 133.356 202.859 129.603 207.395 129.59L404.395 129.047C409.422 129.034 412.987 132.976 412.349 137.852L372.916 438.403Z" fill="url(#paint23_linear_185_19)"/>
<path d="M375.518 281.92C375.197 284.358 372.92 286.177 370.432 286.085L198.023 279.793C195.747 279.711 194.146 277.837 194.46 275.508L197.849 250.384C198.162 248.057 200.239 246.482 202.517 246.545L375.077 251.337C377.569 251.406 379.332 253.166 379.013 255.602L375.518 281.92Z" fill="white"/>
<path d="M368.842 332.969C368.521 335.413 366.242 337.497 363.754 337.373L191.475 328.863C189.201 328.75 187.619 326.574 187.932 324.243L191.349 298.633C191.662 296.304 193.758 294.308 196.034 294.399L368.418 301.352C370.906 301.454 372.666 303.704 372.345 306.144L368.842 332.969Z" fill="white"/>
<path opacity="0.1" d="M379.027 255.501C378.618 255.369 378.179 255.296 377.711 255.283L205.147 250.493C202.871 250.428 200.792 252.006 200.483 254.328L197.087 279.452C197.08 279.517 197.074 279.578 197.068 279.643C195.318 279.15 194.193 277.491 194.456 275.504L197.852 250.38C198.161 248.059 200.24 246.479 202.516 246.545L375.079 251.336C377.527 251.408 379.283 253.112 379.027 255.501Z" fill="url(#paint24_linear_185_19)"/>
<path opacity="0.1" d="M372.382 305.579C371.967 305.414 371.52 305.315 371.046 305.296L198.666 298.341C196.39 298.249 194.29 300.25 193.981 302.579L190.559 328.19C190.539 328.354 190.526 328.513 190.526 328.677C188.776 328.112 187.664 326.23 187.928 324.242L191.35 298.631C191.659 296.302 193.757 294.302 196.035 294.393L368.415 301.348C370.718 301.448 372.387 303.368 372.382 305.579Z" fill="url(#paint25_linear_185_19)"/>
<path d="M323.024 374.346C323.532 370.492 320.808 366.942 316.934 366.718L227.752 361.597C224.059 361.385 220.648 364.496 220.146 368.249L216.466 395.988C215.963 399.747 218.525 403.343 222.217 403.595L311.353 409.694C315.224 409.959 318.79 406.69 319.3 402.831L323.024 374.346Z" fill="#E5E5F7"/>
<path d="M329.759 187.453C328.584 196.321 324.029 204.325 317.552 210.211C310.572 216.561 301.378 220.424 291.816 220.239C282.303 220.055 274.295 215.9 269.153 209.409C264.411 203.426 262.088 195.455 263.251 186.736C265.672 168.598 282.337 153.935 300.625 153.979C319.086 154.019 332.201 169.005 329.759 187.453Z" fill="url(#paint26_linear_185_19)"/>
<path d="M311.976 177.374C310.921 185.319 303.588 191.685 295.626 191.59C287.697 191.494 282.144 185.023 283.193 177.135C284.244 169.25 291.503 162.889 299.436 162.925C307.404 162.962 313.031 169.429 311.976 177.374Z" fill="white"/>
<path d="M317.553 210.212C310.573 216.561 301.379 220.424 291.818 220.239C282.304 220.056 274.297 215.9 269.155 209.409C275.04 201.21 284.746 195.757 295.055 195.891C305.418 196.025 313.772 201.768 317.553 210.212Z" fill="white"/>
<path opacity="0.4" d="M412.347 137.851L372.916 438.402C372.27 443.324 367.392 446.983 362.394 446.599L244.738 437.565C239.149 431.842 234.546 424.975 231.262 416.734C229.649 412.693 228.468 408.333 227.683 403.747C225.499 391.056 226.345 376.63 229.531 362.47C231.98 351.569 235.821 340.808 240.737 331.098C244.669 323.335 249.293 316.237 254.458 310.271C258.176 305.978 262.198 301.807 266.44 297.716C271.555 292.779 276.991 287.96 282.599 283.185C295.666 272.051 309.658 261.166 322.613 249.671C352.504 223.154 376.755 193.525 370.919 151.249C370.732 149.917 368.911 139.72 366.584 129.149L404.103 129.046C409.128 129.033 412.987 132.977 412.347 137.851Z" fill="white" fill-opacity="0.2"/>
<defs>
<linearGradient id="paint0_linear_185_19" x1="358.26" y1="385.89" x2="497.816" y2="8.97863" gradientUnits="userSpaceOnUse">
<stop stop-color="#1FCD6F"/>
<stop offset="1" stop-color="#14FF80"/>
</linearGradient>
<linearGradient id="paint1_linear_185_19" x1="254.948" y1="348.68" x2="525.644" y2="348.68" gradientUnits="userSpaceOnUse">
<stop stop-color="#5957F8"/>
<stop offset="1" stop-color="#5957F8"/>
</linearGradient>
<linearGradient id="paint2_linear_185_19" x1="324.415" y1="284.865" x2="404.318" y2="293.581" gradientUnits="userSpaceOnUse">
<stop stop-color="#444B8C"/>
<stop offset="0.9964" stop-color="#26264F"/>
</linearGradient>
<linearGradient id="paint3_linear_185_19" x1="254.014" y1="83.4561" x2="451.589" y2="756.083" gradientUnits="userSpaceOnUse">
<stop stop-color="#444B8C"/>
<stop offset="0.9964" stop-color="#26264F"/>
</linearGradient>
<linearGradient id="paint4_linear_185_19" x1="328.05" y1="66.8885" x2="560.254" y2="695.774" gradientUnits="userSpaceOnUse">
<stop stop-color="#FFC444"/>
<stop offset="0.9964" stop-color="#F36F56"/>
</linearGradient>
<linearGradient id="paint5_linear_185_19" x1="48.6702" y1="164.46" x2="175.945" y2="48.9616" gradientUnits="userSpaceOnUse">
<stop stop-color="#20CD70"/>
<stop offset="1" stop-color="#1FCD6F"/>
</linearGradient>
<linearGradient id="paint6_linear_185_19" x1="177.622" y1="264.889" x2="152.401" y2="290.561" gradientUnits="userSpaceOnUse">
<stop stop-color="#FFC444"/>
<stop offset="0.9964" stop-color="#F36F56"/>
</linearGradient>
<linearGradient id="paint7_linear_185_19" x1="115.105" y1="508.741" x2="115.318" y2="451.789" gradientUnits="userSpaceOnUse">
<stop stop-color="#AA80F9"/>
<stop offset="0.9964" stop-color="#6165D7"/>
</linearGradient>
<linearGradient id="paint8_linear_185_19" x1="109.464" y1="527.042" x2="106.752" y2="497.613" gradientUnits="userSpaceOnUse">
<stop stop-color="#FFC444"/>
<stop offset="0.9964" stop-color="#F36F56"/>
</linearGradient>
<linearGradient id="paint9_linear_185_19" x1="81.5289" y1="508.616" x2="81.7414" y2="451.663" gradientUnits="userSpaceOnUse">
<stop stop-color="#AA80F9"/>
<stop offset="0.9964" stop-color="#6165D7"/>
</linearGradient>
<linearGradient id="paint10_linear_185_19" x1="75.4348" y1="530.177" x2="72.723" y2="500.748" gradientUnits="userSpaceOnUse">
<stop stop-color="#FFC444"/>
<stop offset="0.9964" stop-color="#F36F56"/>
</linearGradient>
<linearGradient id="paint11_linear_185_19" x1="108.434" y1="378.757" x2="87.5592" y2="485.482" gradientUnits="userSpaceOnUse">
<stop stop-color="#311944"/>
<stop offset="1" stop-color="#893976"/>
</linearGradient>
<linearGradient id="paint12_linear_185_19" x1="118.852" y1="430.944" x2="87.4893" y2="433.458" gradientUnits="userSpaceOnUse">
<stop stop-color="#311944"/>
<stop offset="1" stop-color="#893976"/>
</linearGradient>
<linearGradient id="paint13_linear_185_19" x1="101.505" y1="436.844" x2="53.8934" y2="440.66" gradientUnits="userSpaceOnUse">
<stop stop-color="#311944"/>
<stop offset="1" stop-color="#893976"/>
</linearGradient>
<linearGradient id="paint14_linear_185_19" x1="139.112" y1="279.698" x2="103.887" y2="505.922" gradientUnits="userSpaceOnUse">
<stop stop-color="#AA80F9"/>
<stop offset="0.9964" stop-color="#6165D7"/>
</linearGradient>
<linearGradient id="paint15_linear_185_19" x1="64.1944" y1="528.011" x2="47.1574" y2="756.325" gradientUnits="userSpaceOnUse">
<stop stop-color="#AA80F9"/>
<stop offset="0.9964" stop-color="#6165D7"/>
</linearGradient>
<linearGradient id="paint16_linear_185_19" x1="6.27055" y1="450.165" x2="100.301" y2="289.099" gradientUnits="userSpaceOnUse">
<stop stop-color="#AA80F9"/>
<stop offset="0.9964" stop-color="#6165D7"/>
</linearGradient>
<linearGradient id="paint17_linear_185_19" x1="39.604" y1="338.8" x2="59.4356" y2="365.59" gradientUnits="userSpaceOnUse">
<stop stop-color="#FFC444"/>
<stop offset="0.9964" stop-color="#F36F56"/>
</linearGradient>
<linearGradient id="paint18_linear_185_19" x1="22.5691" y1="524.905" x2="5.53208" y2="753.219" gradientUnits="userSpaceOnUse">
<stop stop-color="#AA80F9"/>
<stop offset="0.9964" stop-color="#6165D7"/>
</linearGradient>
<linearGradient id="paint19_linear_185_19" x1="95.921" y1="272.043" x2="76.8294" y2="248.289" gradientUnits="userSpaceOnUse">
<stop stop-color="#FFC444"/>
<stop offset="0.9964" stop-color="#F36F56"/>
</linearGradient>
<linearGradient id="paint20_linear_185_19" x1="81.404" y1="263.319" x2="91.5229" y2="230.031" gradientUnits="userSpaceOnUse">
<stop stop-color="#444B8C"/>
<stop offset="0.9964" stop-color="#3E4177"/>
</linearGradient>
<linearGradient id="paint21_linear_185_19" x1="107.21" y1="251.703" x2="78.7482" y2="239.034" gradientUnits="userSpaceOnUse">
<stop stop-color="#FFC444"/>
<stop offset="0.9964" stop-color="#F36F56"/>
</linearGradient>
<linearGradient id="paint22_linear_185_19" x1="159.8" y1="291.002" x2="416.418" y2="291.002" gradientUnits="userSpaceOnUse">
<stop stop-color="#311944"/>
<stop offset="1" stop-color="#5957F8"/>
</linearGradient>
<linearGradient id="paint23_linear_185_19" x1="315.815" y1="795.724" x2="285.217" y2="265.71" gradientUnits="userSpaceOnUse">
<stop offset="0.003597" stop-color="#5957F8"/>
<stop offset="1" stop-color="#5957F8"/>
</linearGradient>
<linearGradient id="paint24_linear_185_19" x1="194.417" y1="263.095" x2="379.051" y2="263.095" gradientUnits="userSpaceOnUse">
<stop offset="0.003597" stop-color="#F36F56"/>
<stop offset="1" stop-color="#FFC444"/>
</linearGradient>
<linearGradient id="paint25_linear_185_19" x1="187.891" y1="311.534" x2="372.382" y2="311.534" gradientUnits="userSpaceOnUse">
<stop offset="0.003597" stop-color="#F36F56"/>
<stop offset="1" stop-color="#FFC444"/>
</linearGradient>
<linearGradient id="paint26_linear_185_19" x1="292.138" y1="57.1143" x2="300.946" y2="319.394" gradientUnits="userSpaceOnUse">
<stop offset="0.003597" stop-color="#5957F8"/>
<stop offset="1" stop-color="#5957F8"/>
</linearGradient>
</defs>
</svg>
