<svg width="24" height="25" viewBox="0 0 24 25" fill="none" xmlns="http://www.w3.org/2000/svg">
<path d="M14.857 5.42587C13.7901 2.85805 10.2099 2.85804 9.14297 5.42587L8.58369 6.77189C8.361 7.30784 7.87574 7.67228 7.3211 7.73508L5.76039 7.91179C3.12208 8.21052 2.0693 11.4949 3.96629 13.3289L5.29142 14.61C5.68291 14.9885 5.85894 15.5499 5.75098 16.096L5.43104 17.7142C4.89984 20.401 7.795 22.4982 10.1279 21.0005L11.1745 20.3286C11.6797 20.0043 12.3203 20.0043 12.8255 20.3286L13.8721 21.0005C16.205 22.4982 19.1002 20.401 18.569 17.7142L18.249 16.096C18.1411 15.5499 18.3171 14.9885 18.7086 14.61L20.0337 13.3289C21.9307 11.4949 20.8779 8.21052 18.2396 7.91179L16.6789 7.73508C16.1243 7.67228 15.639 7.30784 15.4163 6.77189L14.857 5.42587Z" fill="#FF975C"/>
</svg>
