<svg width="76" height="76" viewBox="0 0 76 76" fill="none" xmlns="http://www.w3.org/2000/svg">
<path d="M75.9999 37.9998C75.9999 63.2123 63.3937 75.8185 38.1812 75.8185C12.9688 75.8185 0.362549 63.2123 0.362549 37.9998C0.362549 12.7874 12.9688 0.181152 38.1812 0.181152C63.3937 0.181152 75.9999 12.7874 75.9999 37.9998Z" fill="#020056" fill-opacity="0.05"/>
<g opacity="0.4">
<path fill-rule="evenodd" clip-rule="evenodd" d="M22.8515 33.8021C22.0495 37.221 22.0495 40.779 22.8515 44.1979C24.0096 49.1353 27.8647 52.9904 32.8021 54.1485C36.221 54.9505 39.7791 54.9505 43.198 54.1485C48.1353 52.9904 51.9904 49.1353 53.1485 44.1979C53.9505 40.779 53.9505 37.221 53.1485 33.8021C51.9904 28.8647 48.1353 25.0096 43.1979 23.8515C39.779 23.0495 36.221 23.0495 32.8021 23.8515C27.8647 25.0096 24.0096 28.8647 22.8515 33.8021ZM39.3401 44.6122C39.3401 45.3061 38.7776 45.8686 38.0837 45.8686C37.3898 45.8686 36.8273 45.3061 36.8273 44.6122C36.8273 43.9183 37.3898 43.3558 38.0837 43.3558C38.7776 43.3558 39.3401 43.9183 39.3401 44.6122ZM35.6546 35.4821C35.6546 34.1868 36.7047 33.1367 38 33.1367C39.2953 33.1367 40.3453 34.1868 40.3453 35.4821V35.6853C40.3453 36.3612 40.0768 37.0095 39.5988 37.4874L37.2892 39.7971C36.8967 40.1896 36.8967 40.826 37.2892 41.2186C37.6817 41.6111 38.3182 41.6111 38.7107 41.2186L41.0203 38.9089C41.8753 38.054 42.3556 36.8944 42.3556 35.6853V35.4821C42.3556 33.0765 40.4055 31.1264 38 31.1264C35.5944 31.1264 33.6443 33.0765 33.6443 35.4821V36.3197C33.6443 36.8748 34.0943 37.3248 34.6495 37.3248C35.2046 37.3248 35.6546 36.8748 35.6546 36.3197V35.4821Z" fill="#020056"/>
</g>
</svg>
